<svg width="24" height="24" viewBox="0 0 24 24" fill="none" xmlns="http://www.w3.org/2000/svg">
<path d="M13.9534 8.81653L11.9896 12.2791V23.9793H14.9457V11.3592H21.0439V23.9793H24V8.81653H13.9534Z" fill="white"/>
<path d="M8.07235 2.68734C9.52972 2.68734 10.7494 3.25581 11.7313 4.39277V0.930233C10.584 0.310078 9.33333 0 8 0C5.71576 0 3.8553 0.671835 2.42894 2.00517C0.816537 3.50388 0 5.47804 0 7.93799C0 10.2429 0.816537 12.1757 2.42894 13.7364C3.80362 15.0388 5.47804 15.7313 7.46253 15.8346C7.62791 15.845 7.80362 15.845 7.97933 15.845C8.73385 15.845 9.44703 15.7623 10.1189 15.5762L11.7313 12.7339V11.5039C10.9767 12.3928 10.0775 12.9199 9.01292 13.0956C8.74419 13.137 8.47545 13.168 8.18605 13.168C6.8217 13.168 5.62274 12.7028 4.58915 11.7726C3.55556 10.8424 3.03876 9.5814 3.03876 7.98967C3.0491 6.52197 3.51421 5.28165 4.44444 4.23773C5.37468 3.20413 6.58398 2.68734 8.07235 2.68734Z" fill="white"/>
<path d="M17.7469 2.09816L13.9536 8.81651L11.9898 12.279L11.7314 12.7442L10.1293 15.5865L5.80888 23.2248L3.80371 22.3152L7.47296 15.8346L9.01301 13.0956L15.7417 1.1886L17.7469 2.09816Z" fill="#6ABEB9"/>
</svg>
