<svg width="15" height="15" viewBox="0 0 15 15" fill="none" xmlns="http://www.w3.org/2000/svg">
<path d="M5.42294 10.7171L8.64088 7.5L5.42382 4.28294L6.04765 3.65912L9.88853 7.5L6.04676 11.3418L5.42294 10.7171ZM-2.98004e-07 7.5C6.35411e-08 3.36441 3.36441 -6.35411e-08 7.5 2.98003e-07C11.6356 6.59548e-07 15 3.36441 15 7.5C15 11.6356 11.6356 15 7.5 15C3.36441 15 -6.59548e-07 11.6356 -2.98004e-07 7.5ZM0.882353 7.5C0.882352 11.1494 3.85059 14.1176 7.5 14.1176C11.1494 14.1176 14.1176 11.1494 14.1176 7.5C14.1176 3.85059 11.1494 0.882353 7.5 0.882353C3.85059 0.882353 0.882353 3.85059 0.882353 7.5Z" fill="white"/>
</svg>
