<svg width="20" height="20" viewBox="0 0 20 20" fill="none" xmlns="http://www.w3.org/2000/svg">
<path d="M12.7694 5.71059L8.47882 10L12.7682 14.2894L11.9365 15.1212L6.81529 10L11.9376 4.87765L12.7694 5.71059ZM20 10C20 15.5141 15.5141 20 10 20C4.48588 20 0 15.5141 0 10C0 4.48588 4.48588 0 10 0C15.5141 0 20 4.48588 20 10ZM18.8235 10C18.8235 5.13412 14.8659 1.17647 10 1.17647C5.13412 1.17647 1.17647 5.13412 1.17647 10C1.17647 14.8659 5.13412 18.8235 10 18.8235C14.8659 18.8235 18.8235 14.8659 18.8235 10Z" fill="#6ABEB9"/>
</svg>
