<svg width="20" height="15" viewBox="0 0 20 15" fill="none" xmlns="http://www.w3.org/2000/svg">
<path d="M19.9588 7.37286C18.4483 3.52933 14.4447 0.945801 10 0.945801C5.55532 0.945801 1.55179 3.52933 0.0411986 7.37286C-0.0129191 7.51051 -0.0129191 7.66462 0.0411986 7.80227C1.55296 11.647 5.55532 14.2305 10 14.2305C14.4447 14.2305 18.4471 11.6482 19.9588 7.80345C20.0141 7.66462 20.0141 7.51168 19.9588 7.37286ZM10 13.054C6.12002 13.054 2.62473 10.867 1.22473 7.58815C2.62355 4.30933 6.11885 2.12227 10 2.12227C13.8812 2.12227 17.3765 4.30933 18.7753 7.58815C17.3753 10.8658 13.88 13.054 10 13.054ZM10 3.30227C7.63649 3.30227 5.71414 5.22462 5.71414 7.58815C5.71414 9.95168 7.63649 11.874 10.0012 11.874C12.3636 11.874 14.2871 9.95168 14.2871 7.58815C14.2871 5.22462 12.3636 3.30227 10 3.30227ZM10 10.6976C8.28473 10.6976 6.88943 9.30227 6.88943 7.58815C6.88943 5.87404 8.28591 4.47874 10 4.47874C11.7141 4.47874 13.1094 5.87404 13.1094 7.58815C13.1094 9.30227 11.7153 10.6976 10 10.6976ZM10 5.99168C9.12002 5.99168 8.40355 6.70815 8.40355 7.58815C8.40355 8.46815 9.12002 9.18462 10 9.18462C10.88 9.18462 11.5965 8.46815 11.5965 7.58815C11.5965 6.70815 10.88 5.99168 10 5.99168ZM10 8.00815C9.76826 8.00815 9.58002 7.81992 9.58002 7.58815C9.58002 7.35639 9.76826 7.16815 10 7.16815C10.2318 7.16815 10.42 7.35639 10.42 7.58815C10.42 7.81992 10.2318 8.00815 10 8.00815Z" fill="white"/>
</svg>
