<svg width="20" height="20" viewBox="0 0 20 20" fill="none" xmlns="http://www.w3.org/2000/svg">
<path d="M10 0.000546875C4.485 0.000546875 0 4.48555 0 10.0005C0 14.828 3.45 18.833 8.0075 19.7668C8.3575 19.833 8.7325 19.5368 8.75 19.1793V14.1018C8.75875 13.8218 8.55375 13.548 8.28125 13.4768C6.3 12.9305 5 11.5593 5 10.0005C5 9.16555 5.385 8.35055 6.055 7.69555C6.1725 7.58555 6.2425 7.4268 6.25 7.2668V5.35055L8.20375 6.32805C8.325 6.38305 8.46375 6.3968 8.59375 6.36805C9.46875 6.2393 10.49 6.23305 11.4062 6.36805C11.5363 6.3968 11.675 6.38305 11.7975 6.32805L13.75 5.35305V7.26555C13.7563 7.42805 13.8275 7.58555 13.945 7.69555C14.615 8.35055 15 9.16555 15 10.0005C15 11.558 13.7 12.9293 11.7188 13.4755C11.4462 13.5468 11.2413 13.8205 11.25 14.1005V19.1805C11.2662 19.5368 11.6412 19.833 11.9925 19.768C16.55 18.8318 20 14.8255 20 9.99805C20 4.48305 15.515 -0.00195312 10 -0.00195312V0.000546875ZM10 1.25055C14.84 1.25055 18.75 5.16055 18.75 10.0005C18.75 13.953 16.0938 17.1943 12.5 18.2818V14.413C14.6062 13.648 16.25 12.0718 16.25 10.0005C16.25 8.88805 15.7312 7.8793 15 7.07055V4.37555C15.0162 3.94555 14.4875 3.60055 14.1 3.78805L11.3688 5.1193C10.5563 4.9568 9.41875 4.9818 8.63375 5.1193L5.9 3.78805C5.5125 3.60055 4.98375 3.94555 5 4.37555V7.07055C4.26875 7.8793 3.75 8.88805 3.75 10.0005C3.75 12.0718 5.39375 13.648 7.5 14.413V15.1568C7.1175 15.353 6.935 15.3918 6.7575 15.3918C6.0375 15.3918 6.145 13.7505 4.375 13.7505C3.56 13.7505 3.5575 15.0005 4.375 15.0005C5.3375 15.0005 5.305 16.633 6.5625 16.6468C6.8625 16.6493 7.16875 16.6293 7.5 16.5243V18.2805C3.90625 17.1943 1.25 13.953 1.25 10.0005C1.25 5.16055 5.16 1.25055 10 1.25055Z" fill="white"/>
</svg>
