<svg width="24" height="24" viewBox="0 0 24 24" fill="none" xmlns="http://www.w3.org/2000/svg">
<path d="M22.0742 15.7533C20.6049 15.7533 19.1621 15.5234 17.7949 15.0716C17.1133 14.8392 16.3372 15.0196 15.8926 15.4727L13.194 17.5098C10.0644 15.8393 8.13669 13.9121 6.48894 10.8061L8.46612 8.17781C8.97981 7.66481 9.16406 6.91544 8.94331 6.21231C8.48956 4.83794 8.25906 3.39587 8.25906 1.92587C8.25913 0.863937 7.39519 0 6.33331 0H1.92575C0.863937 0 0 0.863937 0 1.92575C0 14.0977 9.90237 24 22.0742 24C23.1361 24 24.0001 23.1361 24.0001 22.0742V17.679C24 16.6172 23.1361 15.7533 22.0742 15.7533ZM22.6667 22.0742C22.6667 22.4011 22.4011 22.6667 22.0742 22.6667C10.6374 22.6667 1.33337 13.3626 1.33337 1.92581C1.33337 1.599 1.599 1.33337 1.92581 1.33337H6.33337C6.66019 1.33337 6.92581 1.599 6.92581 1.92581C6.92581 3.53844 7.17906 5.12113 7.6745 6.6205C7.7435 6.84188 7.6875 7.071 7.46356 7.30412L5.17188 10.3392C5.01825 10.5429 4.99412 10.8158 5.10938 11.0429C6.97981 14.7194 9.25263 16.9922 12.9551 18.8893C13.1803 19.0071 13.4564 18.9824 13.6608 18.8281L16.7656 16.4759C16.9225 16.3191 17.1576 16.2631 17.3698 16.3353C18.8796 16.834 20.4622 17.0866 22.0742 17.0866C22.4011 17.0866 22.6667 17.3522 22.6667 17.6791V22.0742Z" fill="#6ABEB9"/>
</svg>
