<svg width="24" height="24" viewBox="0 0 24 24" fill="none" xmlns="http://www.w3.org/2000/svg">
<path d="M22.6627 14.4411L22.6252 14.6128L22.7034 14.7703C23.1052 15.579 23.3321 16.4895 23.3321 17.4547C23.3321 20.7933 20.6257 23.5 17.2867 23.5C16.2523 23.5 15.2798 23.24 14.4292 22.7828L14.2743 22.6996L14.1014 22.7316C13.4611 22.8501 12.8009 22.9126 12.1257 22.9126C6.16845 22.9126 1.33904 18.0831 1.33904 12.1259C1.33904 11.3821 1.41435 10.6567 1.55736 9.95607L1.59572 9.76813L1.49854 9.60276C0.971253 8.70547 0.667786 7.66166 0.667786 6.5453C0.667786 3.20695 3.37442 0.5 6.71322 0.5C7.89592 0.5 8.99739 0.840479 9.92903 1.42747L10.0914 1.5298L10.2806 1.49715C10.8803 1.39366 11.4964 1.3393 12.1257 1.3393C18.0832 1.3393 22.9126 6.1688 22.9126 12.126C22.9126 12.9208 22.8258 13.6951 22.6627 14.4411ZM18.3228 17.8084L18.3229 17.8083C18.9078 16.9802 19.2042 16.0315 19.2042 15.0007C19.2042 14.1592 19.0371 13.4012 18.6812 12.7682L18.6811 12.768C18.3361 12.1551 17.851 11.6444 17.2457 11.2502L17.2455 11.2501C16.6706 10.8762 15.9785 10.5622 15.1945 10.3112L15.1942 10.3112C15.0662 10.2702 14.9349 10.2301 14.8033 10.1909C14.1456 9.99454 13.4259 9.81182 12.6558 9.64639C11.9365 9.48018 11.4206 9.35363 11.119 9.2699L11.1184 9.26972C10.8451 9.19427 10.57 9.08785 10.3012 8.95275L10.3004 8.95233C10.0618 8.83299 9.8969 8.70111 9.7909 8.57172C9.71836 8.48313 9.67899 8.38257 9.67899 8.23144C9.67899 8.03592 9.76937 7.819 10.1526 7.56777L10.1527 7.56775C10.534 7.31774 11.0862 7.16689 11.8341 7.16689C12.6749 7.16689 13.1705 7.31322 13.4158 7.49979L13.4159 7.4999C13.7367 7.74373 14.0337 8.10328 14.2888 8.58802L14.2937 8.59725L14.2989 8.60626C14.5529 9.04353 14.8037 9.38775 15.0736 9.62633C15.4216 9.93454 15.8833 10.055 16.377 10.055C16.9684 10.055 17.49 9.83986 17.8966 9.41722L17.8966 9.41718C18.2837 9.01467 18.4992 8.5272 18.4992 7.98141C18.4992 7.46603 18.3529 6.95201 18.0865 6.45696L18.0865 6.45694C17.8138 5.95017 17.3924 5.48483 16.8565 5.06614L16.8565 5.06612C16.306 4.6361 15.6214 4.29865 14.8334 4.05323L14.8332 4.05316C14.0334 3.80445 13.0948 3.6842 12.0508 3.6842C10.7458 3.6842 9.57032 3.86561 8.56564 4.23715L8.56559 4.23717C7.54781 4.61368 6.72517 5.17458 6.15155 5.92274C5.57455 6.67493 5.28186 7.55098 5.28186 8.51123C5.28186 9.50098 5.55545 10.377 6.12158 11.0854C6.65697 11.7555 7.37914 12.2788 8.25126 12.6505C8.2584 12.6536 8.26486 12.6563 8.27031 12.6585C9.0974 13.0088 10.12 13.3127 11.3042 13.5664L11.3065 13.5669C12.1608 13.7457 12.8397 13.9144 13.3309 14.0675L13.331 14.0676C13.7669 14.2034 14.1013 14.3939 14.3427 14.6196C14.5234 14.7891 14.6201 15.0013 14.6201 15.325C14.6201 15.6881 14.4607 16.0077 14.0029 16.3204C13.5345 16.6403 12.8773 16.8255 12.0113 16.8255C11.3731 16.8255 10.9034 16.7319 10.586 16.5816L10.5857 16.5815C10.2359 16.4162 9.9874 16.2163 9.82452 16.0006L9.82439 16.0005C9.62415 15.7355 9.42478 15.3859 9.2362 14.9544C9.03677 14.4864 8.77406 14.0887 8.4385 13.8043L8.43797 13.8039C8.06753 13.4908 7.61565 13.3396 7.12104 13.3396C6.53691 13.3396 6.01338 13.5253 5.60066 13.9134C5.1919 14.2974 4.97221 14.7862 4.97221 15.3434C4.97221 16.1314 5.26214 16.9153 5.78394 17.6678L5.78395 17.6679C6.30502 18.4193 6.99058 19.0262 7.81547 19.4719L7.81885 19.4737C8.97265 20.0857 10.4188 20.3798 12.0943 20.3798C13.4943 20.3798 14.749 20.1638 15.8133 19.7215L15.8133 19.7215C16.8826 19.2769 17.7365 18.6382 18.3228 17.8084Z" stroke="#6ABEB9"/>
</svg>
