<?xml version="1.0" encoding="utf-8"?>
<!-- Generator: Adobe Illustrator 24.0.3, SVG Export Plug-In . SVG Version: 6.00 Build 0)  -->
<svg version="1.1" id="Layer_1" xmlns="http://www.w3.org/2000/svg" xmlns:xlink="http://www.w3.org/1999/xlink" x="0px" y="0px"
	 viewBox="0 0 24 24" style="enable-background:new 0 0 24 24;" xml:space="preserve">
<style type="text/css">
	.st0{fill:#6ABEB9;}
</style>
<path class="st0" d="M0.7,10.4c-0.2,0.1-0.3,0.3-0.5,0.4C0.1,11,0,11.3,0,11.6c0.1,0.4,0.3,0.8,0.7,1.1C0.9,12.9,1.2,13,1.2,13
	l4.7,1.6c0.1,0,0.2,0.1,0.2,0.3c0.1,0.2,0.3,0.9,0.5,1.8l0.1,0.2c0.4,1.4,0.9,3,1.1,3.6c0.2,0.5,0.3,0.8,0.5,1
	c0.1,0.1,0.2,0.2,0.3,0.2c0,0,0.1,0,0.1,0c0,0,0,0,0.1,0c0,0,0,0,0,0c0.1,0,0.2,0.1,0.3,0.1c0.4,0,0.6-0.2,0.7-0.2l2.8-2.5
	c0.1-0.1,0.2-0.1,0.3-0.1c0.1,0,0.2,0,0.2,0.1l4.6,3.5c0.3,0.1,0.6,0.2,0.9,0.2c0.4,0,0.9-0.1,1.2-0.4c0.4-0.3,0.6-0.8,0.6-0.8
	l0-0.1l3.5-18.1c0.1-0.4,0.1-0.8,0-1.1c-0.1-0.3-0.3-0.6-0.6-0.8c0,0,0,0,0,0c-0.2-0.1-0.5-0.2-0.7-0.2l-0.1,0
	c-0.3,0-0.6,0.1-0.8,0.2c0,0,0,0,0,0c-0.2,0.1-1.1,0.4-2.4,1l-8.2,3.4l-9.9,4.2c0,0,0,0,0,0l-0.1,0C1.1,10.2,0.9,10.2,0.7,10.4z
	 M1.9,11.2C1.9,11.2,2,11.2,1.9,11.2l16.6-7c1.9-0.8,3.3-1.4,3.4-1.4c0,0,0.2-0.1,0.2-0.1c0.1,0,0.2,0,0.3,0.1
	c0.1,0.1,0.1,0.2,0.1,0.3l-0.1,0l0,0l0.1,0c0,0.1,0,0.1,0,0.2l-3.4,17.5c0,0,0,0.1,0,0.1c0,0-0.1,0.1-0.2,0.2
	c-0.1,0-0.2,0.1-0.4,0.1c-0.1,0-0.2,0-0.4-0.1c0,0-0.1,0-0.1,0l-5.2-4L9.6,20c-0.1,0.1-0.3,0.1-0.4,0.1C9.1,20,9,19.8,9,19.6
	l0.7-4.4c0-0.1,0.1-0.2,0.1-0.2l8.5-7.9L7.6,13.7c-0.1,0.1-0.2,0.1-0.3,0c0,0,0,0-0.1,0l-5.3-1.8c0,0,0,0-0.1,0
	c-0.1-0.1-0.2-0.2-0.2-0.3C1.7,11.4,1.8,11.3,1.9,11.2z"/>
</svg>
